HIERARCHY
ROOT mixamorig:Hips
{
	OFFSET 0.000000 201.639420 0.000000
	CHANNELS 6 Xposition Yposition Zposition Xrotation Yrotation Zrotation
	JOINT mixamorig:Spine
	{
		OFFSET 0.006200 19.524994 -2.481800
		CHANNELS 3 Xrotation Yrotation Zrotation
		JOINT mixamorig:Spine1
		{
			OFFSET -0.000900 22.835007 -2.825400
			CHANNELS 3 Xrotation Yrotation Zrotation
			JOINT mixamorig:Spine2
			{
				OFFSET -0.020600 26.552490 -3.193300
				CHANNELS 3 Xrotation Yrotation Zrotation
				JOINT mixamorig:Neck
				{
					OFFSET -0.060000 30.701813 1.352200
					CHANNELS 3 Xrotation Yrotation Zrotation
					JOINT mixamorig:Head
					{
						OFFSET -0.087200 22.547607 3.670900
						CHANNELS 3 Xrotation Yrotation Zrotation
						JOINT mixamorig:HeadTop_End
						{
							OFFSET -0.830600 40.355194 7.893500
							CHANNELS 3 Xrotation Yrotation Zrotation
							End Site
							{
								OFFSET 0.000000 30.592346 0.000000
							}
						}
						JOINT mixamorig:RightEye
						{
							OFFSET -6.302100 18.118591 16.197100
							CHANNELS 3 Xrotation Yrotation Zrotation
							End Site
							{
								OFFSET 0.000000 30.592346 0.000000
							}
						}
						JOINT mixamorig:LeftEye
						{
							OFFSET 6.741500 18.382690 16.401899
							CHANNELS 3 Xrotation Yrotation Zrotation
							End Site
							{
								OFFSET 0.000000 30.592346 0.000000
							}
						}
					}
				}
				JOINT mixamorig:LeftShoulder
				{
					OFFSET 11.924900 18.230499 1.425400
					CHANNELS 3 Xrotation Yrotation Zrotation
					JOINT mixamorig:LeftArm
					{
						OFFSET 25.435989 -0.697632 -5.229300
						CHANNELS 3 Xrotation Yrotation Zrotation
						JOINT mixamorig:LeftForeArm
						{
							OFFSET 54.684776 0.000000 0.000000
							CHANNELS 3 Xrotation Yrotation Zrotation
							JOINT mixamorig:LeftHand
							{
								OFFSET 55.098175 0.000000 0.000000
								CHANNELS 3 Xrotation Yrotation Zrotation
								JOINT mixamorig:LeftHandMiddle1
								{
									OFFSET 23.369751 0.000000 0.000000
									CHANNELS 3 Xrotation Yrotation Zrotation
									JOINT mixamorig:LeftHandMiddle2
									{
										OFFSET 6.378677 0.000000 0.000000
										CHANNELS 3 Xrotation Yrotation Zrotation
										JOINT mixamorig:LeftHandMiddle3
										{
											OFFSET 6.148331 0.000000 0.000000
											CHANNELS 3 Xrotation Yrotation Zrotation
											JOINT mixamorig:LeftHandMiddle4
											{
												OFFSET 6.582504 0.000000 0.000000
												CHANNELS 3 Xrotation Yrotation Zrotation
												End Site
												{
													OFFSET -1.168900 6.395691 1.028606
												}
											}
										}
									}
								}
								JOINT mixamorig:LeftHandThumb1
								{
									OFFSET 7.235672 -3.848206 5.434273
									CHANNELS 3 Xrotation Yrotation Zrotation
									JOINT mixamorig:LeftHandThumb2
									{
										OFFSET 6.568451 -3.792297 3.792300
										CHANNELS 3 Xrotation Yrotation Zrotation
										JOINT mixamorig:LeftHandThumb3
										{
											OFFSET 6.063080 -3.500519 3.500518
											CHANNELS 3 Xrotation Yrotation Zrotation
											JOINT mixamorig:LeftHandThumb4
											{
												OFFSET 4.793182 -2.767334 2.767349
												CHANNELS 3 Xrotation Yrotation Zrotation
												End Site
												{
													OFFSET 0.101639 6.054260 1.275483
												}
											}
										}
									}
								}
								JOINT mixamorig:LeftHandIndex1
								{
									OFFSET 23.101074 -0.309540 4.992809
									CHANNELS 3 Xrotation Yrotation Zrotation
									JOINT mixamorig:LeftHandIndex2
									{
										OFFSET 6.226883 0.000000 0.000000
										CHANNELS 3 Xrotation Yrotation Zrotation
										JOINT mixamorig:LeftHandIndex3
										{
											OFFSET 6.094330 0.000000 0.000000
											CHANNELS 3 Xrotation Yrotation Zrotation
											JOINT mixamorig:LeftHandIndex4
											{
												OFFSET 5.482605 0.000000 0.000000
												CHANNELS 3 Xrotation Yrotation Zrotation
												End Site
												{
													OFFSET -1.427902 5.233032 0.797164
												}
											}
										}
									}
								}
								JOINT mixamorig:LeftHandRing1
								{
									OFFSET 22.299240 0.021149 -3.964172
									CHANNELS 3 Xrotation Yrotation Zrotation
									JOINT mixamorig:LeftHandRing2
									{
										OFFSET 6.321869 0.000000 0.000000
										CHANNELS 3 Xrotation Yrotation Zrotation
										JOINT mixamorig:LeftHandRing3
										{
											OFFSET 5.899796 0.000000 0.000000
											CHANNELS 3 Xrotation Yrotation Zrotation
											JOINT mixamorig:LeftHandRing4
											{
												OFFSET 6.517899 0.000000 0.000000
												CHANNELS 3 Xrotation Yrotation Zrotation
												End Site
												{
													OFFSET -1.637299 6.232208 0.980890
												}
											}
										}
									}
								}
								JOINT mixamorig:LeftHandPinky1
								{
									OFFSET 20.463791 -0.302338 -8.562233
									CHANNELS 3 Xrotation Yrotation Zrotation
									JOINT mixamorig:LeftHandPinky2
									{
										OFFSET 6.908646 0.000000 0.000000
										CHANNELS 3 Xrotation Yrotation Zrotation
										JOINT mixamorig:LeftHandPinky3
										{
											OFFSET 4.622849 0.000000 0.000000
											CHANNELS 3 Xrotation Yrotation Zrotation
											JOINT mixamorig:LeftHandPinky4
											{
												OFFSET 5.216080 0.000000 0.000000
												CHANNELS 3 Xrotation Yrotation Zrotation
												End Site
												{
													OFFSET -0.606308 5.116241 0.814926
												}
											}
										}
									}
								}
							}
						}
					}
				}
				JOINT mixamorig:RightShoulder
				{
					OFFSET -12.001300 18.284088 1.348900
					CHANNELS 3 Xrotation Yrotation Zrotation
					JOINT mixamorig:RightArm
					{
						OFFSET -25.308500 -0.751312 -5.164599
						CHANNELS 3 Xrotation Yrotation Zrotation
						JOINT mixamorig:RightForeArm
						{
							OFFSET -54.684429 0.000000 0.000000
							CHANNELS 3 Xrotation Yrotation Zrotation
							JOINT mixamorig:RightHand
							{
								OFFSET -55.150291 0.000000 0.000000
								CHANNELS 3 Xrotation Yrotation Zrotation
								JOINT mixamorig:RightHandMiddle1
								{
									OFFSET -23.317566 0.000000 0.000000
									CHANNELS 3 Xrotation Yrotation Zrotation
									JOINT mixamorig:RightHandMiddle2
									{
										OFFSET -6.378403 0.000000 0.000000
										CHANNELS 3 Xrotation Yrotation Zrotation
										JOINT mixamorig:RightHandMiddle3
										{
											OFFSET -6.148193 0.000000 0.000000
											CHANNELS 3 Xrotation Yrotation Zrotation
											JOINT mixamorig:RightHandMiddle4
											{
												OFFSET -6.583389 0.000000 0.000000
												CHANNELS 3 Xrotation Yrotation Zrotation
												End Site
												{
													OFFSET 1.171692 6.395905 1.029786
												}
											}
										}
									}
								}
								JOINT mixamorig:RightHandThumb1
								{
									OFFSET -7.190521 -3.860474 5.435846
									CHANNELS 3 Xrotation Yrotation Zrotation
									JOINT mixamorig:RightHandThumb2
									{
										OFFSET -6.567429 -3.791718 3.791708
										CHANNELS 3 Xrotation Yrotation Zrotation
										JOINT mixamorig:RightHandThumb3
										{
											OFFSET -6.062469 -3.500153 3.500166
											CHANNELS 3 Xrotation Yrotation Zrotation
											JOINT mixamorig:RightHandThumb4
											{
												OFFSET -4.792618 -2.767029 2.767022
												CHANNELS 3 Xrotation Yrotation Zrotation
												End Site
												{
													OFFSET -0.100327 6.053253 1.276754
												}
											}
										}
									}
								}
								JOINT mixamorig:RightHandIndex1
								{
									OFFSET -23.048981 -0.310791 4.992554
									CHANNELS 3 Xrotation Yrotation Zrotation
									JOINT mixamorig:RightHandIndex2
									{
										OFFSET -6.227539 0.000000 0.000000
										CHANNELS 3 Xrotation Yrotation Zrotation
										JOINT mixamorig:RightHandIndex3
										{
											OFFSET -6.095047 0.000000 0.000000
											CHANNELS 3 Xrotation Yrotation Zrotation
											JOINT mixamorig:RightHandIndex4
											{
												OFFSET -5.484772 0.000000 0.000000
												CHANNELS 3 Xrotation Yrotation Zrotation
												End Site
												{
													OFFSET 1.420593 5.237305 0.797056
												}
											}
										}
									}
								}
								JOINT mixamorig:RightHandRing1
								{
									OFFSET -22.246323 0.020569 -3.963762
									CHANNELS 3 Xrotation Yrotation Zrotation
									JOINT mixamorig:RightHandRing2
									{
										OFFSET -6.322128 0.000000 0.000000
										CHANNELS 3 Xrotation Yrotation Zrotation
										JOINT mixamorig:RightHandRing3
										{
											OFFSET -5.900024 0.000000 0.000000
											CHANNELS 3 Xrotation Yrotation Zrotation
											JOINT mixamorig:RightHandRing4
											{
												OFFSET -6.518356 0.000000 0.000000
												CHANNELS 3 Xrotation Yrotation Zrotation
												End Site
												{
													OFFSET 1.636398 6.232697 0.982186
												}
											}
										}
									}
								}
								JOINT mixamorig:RightHandPinky1
								{
									OFFSET -20.411011 -0.303314 -8.561701
									CHANNELS 3 Xrotation Yrotation Zrotation
									JOINT mixamorig:RightHandPinky2
									{
										OFFSET -6.907349 0.000000 0.000000
										CHANNELS 3 Xrotation Yrotation Zrotation
										JOINT mixamorig:RightHandPinky3
										{
											OFFSET -4.623840 0.000000 0.000000
											CHANNELS 3 Xrotation Yrotation Zrotation
											JOINT mixamorig:RightHandPinky4
											{
												OFFSET -5.218353 0.000000 0.000000
												CHANNELS 3 Xrotation Yrotation Zrotation
												End Site
												{
													OFFSET 0.602097 5.118835 0.816273
												}
											}
										}
									}
								}
							}
						}
					}
				}
			}
		}
	}
	JOINT mixamorig:LeftUpLeg
	{
		OFFSET 18.168400 -13.561905 -0.039000
		CHANNELS 3 Xrotation Yrotation Zrotation
		JOINT mixamorig:LeftLeg
		{
			OFFSET 0.577358 -80.825211 -3.695000
			CHANNELS 3 Xrotation Yrotation Zrotation
			JOINT mixamorig:LeftFoot
			{
				OFFSET -0.577356 -83.370262 -6.520700
				CHANNELS 3 Xrotation Yrotation Zrotation
				JOINT mixamorig:LeftToeBase
				{
					OFFSET 0.750401 -20.798306 25.135401
					CHANNELS 3 Xrotation Yrotation Zrotation
					JOINT mixamorig:LeftToe_End
					{
						OFFSET -0.000500 0.001200 19.917799
						CHANNELS 3 Xrotation Yrotation Zrotation
						End Site
						{
							OFFSET 0.000000 19.917805 0.000000
						}
					}
				}
			}
		}
	}
	JOINT mixamorig:RightUpLeg
	{
		OFFSET -18.162500 -13.585098 -0.041000
		CHANNELS 3 Xrotation Yrotation Zrotation
		JOINT mixamorig:RightLeg
		{
			OFFSET -0.595024 -80.945297 -3.631900
			CHANNELS 3 Xrotation Yrotation Zrotation
			JOINT mixamorig:RightFoot
			{
				OFFSET 0.595024 -83.218193 -6.561200
				CHANNELS 3 Xrotation Yrotation Zrotation
				JOINT mixamorig:RightToeBase
				{
					OFFSET -0.753601 -20.807106 25.115000
					CHANNELS 3 Xrotation Yrotation Zrotation
					JOINT mixamorig:RightToe_End
					{
						OFFSET 0.000299 0.001700 19.918200
						CHANNELS 3 Xrotation Yrotation Zrotation
						End Site
						{
							OFFSET 0.000000 19.918203 0.000000
						}
					}
				}
			}
		}
	}
}
MOTION
Frames: 5
Frame Time: 0.033333
0.722756 199.108231 -0.253991 -3.750702 -6.081183 -4.437792 3.283305 1.586233 3.581297 1.158074 0.357948 1.691010 1.131805 0.383462 1.696558 5.626311 -0.078967 0.454686 -7.563342 1.375723 -0.080566 -0.000000 0.000000 0.000000 -0.000000 0.000000 0.000000 -0.000000 0.000000 0.000000 1.049450 -17.442073 -12.319428 3.916261 -19.989259 -69.765239 0.000002 -1.459364 -0.000016 -33.230400 -1.364819 -6.186614 -0.076311 2.665777 -15.696827 0.268861 1.756041 -17.407958 0.300608 1.854238 -18.416043 -0.000001 -0.000001 -0.000002 -0.663011 2.160315 4.832510 11.853263 25.431318 17.058818 -13.811871 3.542630 9.021651 0.000001 0.000002 -0.000004 0.009900 -0.968249 -7.593669 0.268498 1.754878 -17.396164 0.057967 0.823026 -8.058397 -0.000002 0.000000 -0.000002 0.134781 3.636286 -21.133987 0.386619 2.094791 -20.911888 0.283044 1.800633 -17.865021 -0.000000 -0.000000 -0.000001 0.925856 5.556872 -27.127860 0.269405 1.757800 -17.425966 0.242557 1.669894 -16.528154 -0.000001 0.000000 0.000002 1.203143 15.343646 14.705976 13.158855 27.555119 58.785157 -0.000005 6.693732 0.000005 -20.179087 -0.514088 6.782809 -0.138062 -2.198282 14.999394 0.214862 -1.399662 17.453686 0.240204 -1.477815 18.462932 0.000001 0.000000 0.000002 -1.665250 -0.174476 -4.219027 12.710553 -29.825155 -16.136129 -15.561505 -3.543796 -12.708255 -0.000002 -0.000000 0.000002 0.026149 1.260806 6.824073 0.213812 -1.396309 17.410784 0.046074 -0.654150 8.056960 0.000003 -0.000000 -0.000001 0.030606 -3.075761 20.451012 0.308413 -1.668198 20.947471 0.225795 -1.433968 17.896217 -0.000000 -0.000000 0.000004 0.748877 -4.885235 26.473771 0.214456 -1.398378 17.437242 0.193007 -1.328181 16.535818 0.000003 0.000001 0.000000 -22.114624 31.181545 17.805125 19.380928 -7.196402 5.826356 -0.588348 -8.635523 -5.944387 -4.928524 0.000010 -0.000001 0.000000 -0.000001 0.000000 -3.293343 -10.624058 3.351222 12.383400 -9.874957 -3.282125 -4.691516 -1.645793 3.442223 -7.282874 0.000000 0.000000 -0.000000 0.000002 0.000000 
0.317592 198.978821 -1.691679 -2.956867 -2.393466 -3.872898 3.360855 1.832833 3.650633 1.248461 0.509766 1.699852 1.218346 0.536308 1.655903 5.523486 0.612423 0.100401 -7.889782 3.579786 -0.644332 -0.000000 -0.000001 0.000000 -0.000000 -0.000001 0.000000 -0.000000 -0.000001 0.000000 0.993317 -17.560111 -12.568273 2.639236 -19.942838 -69.046642 0.000005 -2.239531 -0.000002 -33.120649 -2.737379 -5.111420 -0.097019 2.598625 -15.774728 0.268987 1.756443 -17.412087 0.300750 1.854654 -18.420306 -0.000001 -0.000000 0.000003 -0.663011 2.160314 4.832510 11.641188 25.398851 17.084677 -13.826062 3.638076 9.043128 0.000000 -0.000000 0.000000 0.003099 -0.982794 -7.663296 0.268495 1.754889 -17.396133 0.057971 0.823023 -8.058420 -0.000000 -0.000001 -0.000001 0.137145 3.645291 -21.200759 0.387640 2.097450 -20.939719 0.283916 1.803339 -17.892823 -0.000000 0.000000 0.000001 0.908166 5.521655 -27.172900 0.269410 1.757803 -17.425967 0.242560 1.669894 -16.528165 -0.000001 -0.000001 -0.000000 1.250876 15.407585 14.460566 13.944149 27.532102 58.271732 0.000009 6.984354 0.000003 -20.528270 -0.627524 6.704431 -0.137367 -2.208688 15.086020 0.214863 -1.399663 17.453705 0.240199 -1.477808 18.462920 -0.000001 0.000002 -0.000003 -1.665249 -0.174476 -4.219028 12.693770 -29.781565 -16.134816 -15.561497 -3.543800 -12.708276 -0.000002 0.000000 0.000002 0.021710 1.282886 6.850938 0.213687 -1.395916 17.405670 0.046003 -0.653730 8.051845 0.000001 0.000000 0.000001 0.024787 -3.063056 20.515230 0.308420 -1.668197 20.947470 0.225796 -1.433977 17.896226 0.000001 0.000001 0.000002 0.692595 -4.809682 26.559144 0.216201 -1.403922 17.508661 0.194620 -1.333598 16.605163 -0.000001 0.000004 0.000002 -24.646961 30.870245 18.694060 20.492506 -7.542826 4.301667 0.187154 -11.156948 -6.590223 -4.410391 0.000007 0.000000 0.000000 -0.000001 0.000000 -4.743469 -14.315298 2.574396 13.676913 -9.972775 -3.281482 -5.267587 -1.651170 3.380147 -7.282874 0.000005 0.000001 -0.000000 -0.000000 -0.000000 
-0.474237 198.930450 -3.243666 -2.397912 1.510334 -3.337325 3.477466 2.025549 3.643476 1.360987 0.633287 1.808119 1.327583 0.653674 1.648439 5.696207 1.810647 -0.444569 -7.752125 6.775641 -1.459389 -0.000000 0.000001 -0.000000 -0.000000 0.000001 -0.000000 -0.000000 0.000001 -0.000000 0.903956 -17.718578 -12.975349 1.090640 -20.084018 -67.914504 0.000000 -2.649986 0.000002 -31.374184 -3.546561 -3.146128 -0.096158 2.615840 -15.932268 0.269438 1.757895 -17.426936 0.301232 1.856100 -18.435166 -0.000000 0.000000 0.000001 -0.663008 2.160314 4.832511 11.813865 25.448894 17.061819 -13.845911 3.564550 9.037725 -0.000002 0.000000 0.000001 0.009587 -0.946407 -7.793874 0.268499 1.754886 -17.396123 0.057971 0.823025 -8.058409 -0.000000 0.000002 -0.000000 0.150206 3.683778 -21.315801 0.388435 2.099522 -20.961427 0.284597 1.805440 -17.914393 -0.000001 0.000000 -0.000002 0.924043 5.550994 -27.239705 0.269408 1.757802 -17.425950 0.242557 1.669889 -16.528172 -0.000002 0.000000 -0.000000 1.302114 15.431551 14.221639 14.812028 27.087318 57.658708 -0.000005 7.436514 -0.000004 -20.939652 -0.954604 6.471014 -0.133115 -2.231753 15.168003 0.214855 -1.399664 17.453695 0.240196 -1.477799 18.462925 -0.000001 0.000001 0.000003 -1.665253 -0.174476 -4.219027 12.732940 -29.840864 -16.087416 -15.561503 -3.543792 -12.708272 -0.000005 -0.000000 0.000001 0.015315 1.281151 6.942999 0.213151 -1.394189 17.383298 0.045750 -0.651933 8.029506 0.000003 -0.000002 0.000000 0.014967 -3.041041 20.606392 0.308402 -1.668196 20.947437 0.225799 -1.433974 17.896221 0.000003 -0.000000 0.000000 0.627051 -4.722448 26.668398 0.215488 -1.401638 17.479265 0.193882 -1.331104 16.573343 0.000000 0.000002 -0.000001 -27.517085 30.394728 19.944827 22.360545 -7.913743 2.951415 0.974065 -11.982516 -10.066956 -3.966214 0.000004 0.000001 0.000000 0.000001 0.000000 -5.837761 -18.154923 1.784461 14.550946 -9.993947 -3.281656 -5.682372 -1.747506 3.174542 -7.282877 0.000006 -0.000001 0.000000 0.000000 -0.000000 
-1.553474 198.959183 -5.027994 -2.056751 5.385318 -2.934808 3.637834 2.184752 3.432369 1.508137 0.768462 2.007244 1.472463 0.772460 1.662641 6.149352 3.407265 -1.100996 -7.005123 10.747306 -2.448256 0.000000 0.000000 -0.000000 0.000000 0.000000 -0.000000 0.000000 0.000000 -0.000000 0.798217 -17.841955 -13.465092 -0.464908 -20.240545 -66.462255 0.000000 -3.141143 -0.000005 -28.681453 -3.969463 -0.613562 -0.065964 2.751651 -16.290221 0.270494 1.761263 -17.461411 0.302337 1.859398 -18.469154 -0.000000 0.000001 -0.000003 -0.663008 2.160314 4.832510 12.371324 25.699731 17.000887 -13.776288 3.219280 9.054359 0.000001 -0.000001 -0.000001 0.035690 -0.844155 -8.105265 0.268499 1.754888 -17.396133 0.057971 0.823024 -8.058421 -0.000000 -0.000001 -0.000001 0.181436 3.772665 -21.549095 0.389047 2.101119 -20.978112 0.285112 1.807039 -17.930777 -0.000001 -0.000000 -0.000002 0.994253 5.655760 -27.386759 0.269408 1.757803 -17.425983 0.242559 1.669890 -16.528166 0.000000 -0.000001 -0.000000 1.340714 15.393445 14.035492 15.679652 26.293604 57.004725 -0.000003 7.981916 0.000005 -21.416232 -1.549650 6.096416 -0.130290 -2.247864 15.232544 0.214853 -1.399649 17.453717 0.240201 -1.477813 18.462922 -0.000001 0.000000 0.000001 -1.665247 -0.174476 -4.219028 12.792735 -29.940848 -16.025422 -15.561505 -3.543805 -12.708287 0.000000 0.000000 -0.000001 0.009436 1.267685 7.046829 0.212699 -1.392752 17.365109 0.045554 -0.650483 8.011268 -0.000002 -0.000001 0.000000 0.008439 -3.027323 20.684133 0.308407 -1.668191 20.947466 0.225803 -1.433981 17.896216 -0.000001 -0.000001 0.000003 0.577775 -4.657236 26.746353 0.215073 -1.400304 17.462128 0.193438 -1.329634 16.554328 -0.000002 0.000001 -0.000002 -29.335471 30.250378 21.000014 23.624072 -8.473184 1.522317 1.808640 -9.278994 -12.731930 -3.681227 0.000005 0.000002 0.000000 0.000004 -0.000000 -6.579696 -21.958860 1.165268 14.905027 -9.987756 -3.281792 -5.814765 -1.844714 2.817461 -7.282872 0.000010 -0.000001 0.000001 -0.000001 -0.000000 
-2.964255 199.360046 -6.940401 -1.897722 8.925713 -2.433917 3.814588 2.345855 2.959591 1.670637 0.951752 2.262535 1.633984 0.928852 1.672045 6.781615 5.159156 -1.736651 -5.598497 15.032838 -3.499757 -0.000000 0.000000 0.000000 -0.000000 0.000000 0.000000 -0.000000 0.000000 0.000000 0.700300 -17.868543 -13.939871 -1.733489 -20.109269 -64.863643 0.000003 -4.111393 -0.000011 -25.804135 -4.229026 2.199450 -0.019694 2.943244 -16.749748 0.271972 1.765949 -17.509448 0.303876 1.863994 -18.516489 -0.000002 0.000000 0.000000 -0.663008 2.160315 4.832512 12.988837 26.042111 16.944636 -13.553582 2.709916 9.115891 0.000001 0.000002 0.000003 0.068741 -0.710311 -8.538406 0.268496 1.754888 -17.396149 0.057976 0.823022 -8.058406 0.000000 -0.000001 -0.000001 0.222147 3.885911 -21.856778 0.389372 2.101966 -20.986963 0.285380 1.807870 -17.939342 0.000000 -0.000001 -0.000000 1.094440 5.802234 -27.591729 0.269411 1.757801 -17.425942 0.242557 1.669889 -16.528168 0.000000 0.000000 -0.000004 1.361203 15.311903 13.937147 16.584973 25.394539 56.289023 0.000007 8.561381 -0.000015 -21.915079 -2.426198 5.590116 -0.129233 -2.253842 15.256597 0.214943 -1.399936 17.457352 0.240300 -1.478100 18.466552 0.000002 0.000001 0.000001 -1.665250 -0.174476 -4.219028 12.848026 -30.035231 -15.972131 -15.561491 -3.543791 -12.708274 -0.000004 -0.000003 -0.000004 0.005921 1.258837 7.110604 0.213016 -1.393721 17.377261 0.045688 -0.651450 8.023445 0.000003 -0.000001 0.000000 0.006686 -3.024469 20.721575 0.308415 -1.668210 20.947447 0.225793 -1.433968 17.896226 0.000001 0.000000 0.000003 0.546352 -4.615561 26.778245 0.216699 -1.405468 17.528555 0.194961 -1.334718 16.619630 0.000001 -0.000002 -0.000000 -29.861959 30.397180 21.723283 24.324457 -8.832746 -0.047001 3.896807 -0.628726 -11.541485 -3.793424 -0.000012 -0.000003 0.000001 0.000003 -0.000000 -6.447205 -25.581709 0.817788 13.640633 -9.988697 -3.281067 -5.147834 -1.692731 2.228058 -7.282877 -0.000002 0.000000 -0.000000 -0.000000 0.000000 
